# xmcd
#
# Track frame offsets:
#	150
#	13773
#	26382
#	40074
#	51807
#	63732
#	78608
#	95196
#	105621
#	119003
#	135179
#	153510
#
# Disc length: 2197 seconds
#
# Revision: 1
# Processed by: cddbd v1.5.2PL0 Copyright (c) Steve Scherf et al.
# Submitted via: audiograbber 1.83.01
#
DISCID=9e08930c
DTITLE=Various Artist - At Last - Romantic Classics - Disc 3 - Always Together
DYEAR=2012
DGENRE=Easy Listening
TTITLE0=Sarah Vaughan - Misty
TTITLE1=Rosemary Clooney - Always Together
TTITLE2=Ella Fitzgerald - Let's Fall In Love
TTITLE3=Patsy Cline - Sweet Dreams (Of You)
TTITLE4=Peggy Lee - Let Me Go, Lover
TTITLE5=Billie Holiday - Embraceable You
TTITLE6=Dorothy Moore - Misty Blue
TTITLE7=Connie Francis - Who's Sorry Now
TTITLE8=Teresa Brewer - You Send Me
TTITLE9=Dusty Springfield - The Look Of Love
TTITLE10=Mel Torme - Too Close For Comfort
TTITLE11=Dinah Washington - What A Diff'rence A Day Makes
EXTD=Corrected title/artist
EXTT0=
EXTT1=
EXTT2=
EXTT3=
EXTT4=
EXTT5=
EXTT6=
EXTT7=
EXTT8=
EXTT9=
EXTT10=
EXTT11=
PLAYORDER=
